<svg id="visual" viewBox="0 0 960 540" width="960" height="540" xmlns="http://www.w3.org/2000/svg" xmlns:xlink="http://www.w3.org/1999/xlink" version="1.1"><rect x="0" y="0" width="960" height="540" fill="#18171a"></rect><path d="M770 540L854 540L854 517L813 517L813 493L853 493L853 470L804 470L804 446L874 446L874 423L867 423L867 399L827 399L827 376L875 376L875 352L779 352L779 329L777 329L777 305L791 305L791 282L811 282L811 258L843 258L843 235L785 235L785 211L856 211L856 188L879 188L879 164L780 164L780 141L814 141L814 117L865 117L865 94L773 94L773 70L861 70L861 47L861 47L861 23L800 23L800 0L960 0L960 23L960 23L960 47L960 47L960 70L960 70L960 94L960 94L960 117L960 117L960 141L960 141L960 164L960 164L960 188L960 188L960 211L960 211L960 235L960 235L960 258L960 258L960 282L960 282L960 305L960 305L960 329L960 329L960 352L960 352L960 376L960 376L960 399L960 399L960 423L960 423L960 446L960 446L960 470L960 470L960 493L960 493L960 517L960 517L960 540L960 540Z" fill="#5ef4ff"></path><path d="M874 540L816 540L816 517L867 517L867 493L901 493L901 470L815 470L815 446L853 446L853 423L878 423L878 399L819 399L819 376L844 376L844 352L820 352L820 329L859 329L859 305L894 305L894 282L851 282L851 258L821 258L821 235L811 235L811 211L822 211L822 188L816 188L816 164L851 164L851 141L895 141L895 117L843 117L843 94L888 94L888 70L895 70L895 47L904 47L904 23L886 23L886 0L960 0L960 23L960 23L960 47L960 47L960 70L960 70L960 94L960 94L960 117L960 117L960 141L960 141L960 164L960 164L960 188L960 188L960 211L960 211L960 235L960 235L960 258L960 258L960 282L960 282L960 305L960 305L960 329L960 329L960 352L960 352L960 376L960 376L960 399L960 399L960 423L960 423L960 446L960 446L960 470L960 470L960 493L960 493L960 517L960 517L960 540L960 540Z" fill="#46d3de"></path><path d="M931 540L880 540L880 517L883 517L883 493L870 493L870 470L925 470L925 446L901 446L901 423L890 423L890 399L853 399L853 376L855 376L855 352L926 352L926 329L902 329L902 305L920 305L920 282L860 282L860 258L900 258L900 235L901 235L901 211L922 211L922 188L916 188L916 164L927 164L927 141L852 141L852 117L908 117L908 94L918 94L918 70L853 70L853 47L875 47L875 23L917 23L917 0L960 0L960 23L960 23L960 47L960 47L960 70L960 70L960 94L960 94L960 117L960 117L960 141L960 141L960 164L960 164L960 188L960 188L960 211L960 211L960 235L960 235L960 258L960 258L960 282L960 282L960 305L960 305L960 329L960 329L960 352L960 352L960 376L960 376L960 399L960 399L960 423L960 423L960 446L960 446L960 470L960 470L960 493L960 493L960 517L960 517L960 540L960 540Z" fill="#2cb3be"></path><path d="M909 540L933 540L933 517L887 517L887 493L952 493L952 470L886 470L886 446L931 446L931 423L938 423L938 399L917 399L917 376L942 376L942 352L903 352L903 329L901 329L901 305L930 305L930 282L888 282L888 258L924 258L924 235L943 235L943 211L932 211L932 188L927 188L927 164L927 164L927 141L929 141L929 117L939 117L939 94L960 94L960 70L930 70L930 47L925 47L925 23L945 23L945 0L960 0L960 23L960 23L960 47L960 47L960 70L960 70L960 94L960 94L960 117L960 117L960 141L960 141L960 164L960 164L960 188L960 188L960 211L960 211L960 235L960 235L960 258L960 258L960 282L960 282L960 305L960 305L960 329L960 329L960 352L960 352L960 376L960 376L960 399L960 399L960 423L960 423L960 446L960 446L960 470L960 470L960 493L960 493L960 517L960 517L960 540L960 540Z" fill="#07959f"></path></svg>