<svg id="visual" viewBox="0 0 900 600" width="900" height="600" xmlns="http://www.w3.org/2000/svg" xmlns:xlink="http://www.w3.org/1999/xlink" version="1.1"><rect x="0" y="0" width="900" height="600" fill="#18171a"></rect><path d="M818 600L808 600L808 565L776 565L776 529L808 529L808 494L758 494L758 459L762 459L762 424L828 424L828 388L772 388L772 353L803 353L803 318L825 318L825 282L744 282L744 247L828 247L828 212L796 212L796 176L737 176L737 141L770 141L770 106L746 106L746 71L740 71L740 35L730 35L730 0L900 0L900 35L900 35L900 71L900 71L900 106L900 106L900 141L900 141L900 176L900 176L900 212L900 212L900 247L900 247L900 282L900 282L900 318L900 318L900 353L900 353L900 388L900 388L900 424L900 424L900 459L900 459L900 494L900 494L900 529L900 529L900 565L900 565L900 600L900 600Z" fill="#480036"></path><path d="M812 600L780 600L780 565L806 565L806 529L820 529L820 494L778 494L778 459L797 459L797 424L825 424L825 388L808 388L808 353L848 353L848 318L785 318L785 282L789 282L789 247L770 247L770 212L793 212L793 176L843 176L843 141L847 141L847 106L757 106L757 71L786 71L786 35L793 35L793 0L900 0L900 35L900 35L900 71L900 71L900 106L900 106L900 141L900 141L900 176L900 176L900 212L900 212L900 247L900 247L900 282L900 282L900 318L900 318L900 353L900 353L900 388L900 388L900 424L900 424L900 459L900 459L900 494L900 494L900 529L900 529L900 565L900 565L900 600L900 600Z" fill="#610041"></path><path d="M817 600L846 600L846 565L846 565L846 529L836 529L836 494L833 494L833 459L854 459L854 424L826 424L826 388L845 388L845 353L788 353L788 318L833 318L833 282L835 282L835 247L862 247L862 212L827 212L827 176L866 176L866 141L805 141L805 106L824 106L824 71L849 71L849 35L830 35L830 0L900 0L900 35L900 35L900 71L900 71L900 106L900 106L900 141L900 141L900 176L900 176L900 212L900 212L900 247L900 247L900 282L900 282L900 318L900 318L900 353L900 353L900 388L900 388L900 424L900 424L900 459L900 459L900 494L900 494L900 529L900 529L900 565L900 565L900 600L900 600Z" fill="#7b004a"></path><path d="M854 600L855 600L855 565L879 565L879 529L871 529L871 494L817 494L817 459L867 459L867 424L820 424L820 388L829 388L829 353L879 353L879 318L840 318L840 282L824 282L824 247L822 247L822 212L868 212L868 176L827 176L827 141L858 141L858 106L819 106L819 71L832 71L832 35L819 35L819 0L900 0L900 35L900 35L900 71L900 71L900 106L900 106L900 141L900 141L900 176L900 176L900 212L900 212L900 247L900 247L900 282L900 282L900 318L900 318L900 353L900 353L900 388L900 388L900 424L900 424L900 459L900 459L900 494L900 494L900 529L900 529L900 565L900 565L900 600L900 600Z" fill="#960051"></path><path d="M879 600L849 600L849 565L887 565L887 529L860 529L860 494L880 494L880 459L869 459L869 424L883 424L883 388L860 388L860 353L872 353L872 318L854 318L854 282L852 282L852 247L888 247L888 212L895 212L895 176L868 176L868 141L882 141L882 106L877 106L877 71L887 71L887 35L849 35L849 0L900 0L900 35L900 35L900 71L900 71L900 106L900 106L900 141L900 141L900 176L900 176L900 212L900 212L900 247L900 247L900 282L900 282L900 318L900 318L900 353L900 353L900 388L900 388L900 424L900 424L900 459L900 459L900 494L900 494L900 529L900 529L900 565L900 565L900 600L900 600Z" fill="#b10056"></path></svg>