<svg id="visual" viewBox="0 0 900 600" width="900" height="600" xmlns="http://www.w3.org/2000/svg" xmlns:xlink="http://www.w3.org/1999/xlink" version="1.1"><rect x="0" y="0" width="900" height="600" fill="#18171a"></rect><path d="M723 600L671 600L671 563L718 563L718 525L663 525L663 488L754 488L754 450L676 450L676 413L718 413L718 375L743 375L743 338L648 338L648 300L709 300L709 263L634 263L634 225L691 225L691 188L647 188L647 150L742 150L742 113L732 113L732 75L683 75L683 38L657 38L657 0L900 0L900 38L900 38L900 75L900 75L900 113L900 113L900 150L900 150L900 188L900 188L900 225L900 225L900 263L900 263L900 300L900 300L900 338L900 338L900 375L900 375L900 413L900 413L900 450L900 450L900 488L900 488L900 525L900 525L900 563L900 563L900 600L900 600Z" fill="#ff00e8"></path><path d="M726 600L716 600L716 563L717 563L717 525L681 525L681 488L765 488L765 450L741 450L741 413L685 413L685 375L764 375L764 338L711 338L711 300L669 300L669 263L667 263L667 225L774 225L774 188L750 188L750 150L746 150L746 113L721 113L721 75L765 75L765 38L718 38L718 0L900 0L900 38L900 38L900 75L900 75L900 113L900 113L900 150L900 150L900 188L900 188L900 225L900 225L900 263L900 263L900 300L900 300L900 338L900 338L900 375L900 375L900 413L900 413L900 450L900 450L900 488L900 488L900 525L900 525L900 563L900 563L900 600L900 600Z" fill="#e306d5"></path><path d="M720 600L774 600L774 563L702 563L702 525L732 525L732 488L763 488L763 450L707 450L707 413L722 413L722 375L744 375L744 338L768 338L768 300L726 300L726 263L793 263L793 225L745 225L745 188L765 188L765 150L699 150L699 113L769 113L769 75L699 75L699 38L720 38L720 0L900 0L900 38L900 38L900 75L900 75L900 113L900 113L900 150L900 150L900 188L900 188L900 225L900 225L900 263L900 263L900 300L900 300L900 338L900 338L900 375L900 375L900 413L900 413L900 450L900 450L900 488L900 488L900 525L900 525L900 563L900 563L900 600L900 600Z" fill="#c708c1"></path><path d="M763 600L737 600L737 563L732 563L732 525L793 525L793 488L768 488L768 450L776 450L776 413L800 413L800 375L737 375L737 338L728 338L728 300L789 300L789 263L733 263L733 225L746 225L746 188L780 188L780 150L802 150L802 113L784 113L784 75L736 75L736 38L767 38L767 0L900 0L900 38L900 38L900 75L900 75L900 113L900 113L900 150L900 150L900 188L900 188L900 225L900 225L900 263L900 263L900 300L900 300L900 338L900 338L900 375L900 375L900 413L900 413L900 450L900 450L900 488L900 488L900 525L900 525L900 563L900 563L900 600L900 600Z" fill="#ad09ae"></path><path d="M825 600L821 600L821 563L812 563L812 525L819 525L819 488L781 488L781 450L802 450L802 413L759 413L759 375L785 375L785 338L811 338L811 300L754 300L754 263L784 263L784 225L754 225L754 188L818 188L818 150L761 150L761 113L809 113L809 75L785 75L785 38L783 38L783 0L900 0L900 38L900 38L900 75L900 75L900 113L900 113L900 150L900 150L900 188L900 188L900 225L900 225L900 263L900 263L900 300L900 300L900 338L900 338L900 375L900 375L900 413L900 413L900 450L900 450L900 488L900 488L900 525L900 525L900 563L900 563L900 600L900 600Z" fill="#93079a"></path><path d="M823 600L804 600L804 563L816 563L816 525L819 525L819 488L817 488L817 450L822 450L822 413L797 413L797 375L812 375L812 338L785 338L785 300L828 300L828 263L832 263L832 225L847 225L847 188L839 188L839 150L793 150L793 113L784 113L784 75L822 75L822 38L857 38L857 0L900 0L900 38L900 38L900 75L900 75L900 113L900 113L900 150L900 150L900 188L900 188L900 225L900 225L900 263L900 263L900 300L900 300L900 338L900 338L900 375L900 375L900 413L900 413L900 450L900 450L900 488L900 488L900 525L900 525L900 563L900 563L900 600L900 600Z" fill="#7b0586"></path><path d="M824 600L850 600L850 563L843 563L843 525L848 525L848 488L837 488L837 450L851 450L851 413L862 413L862 375L833 375L833 338L817 338L817 300L839 300L839 263L878 263L878 225L841 225L841 188L858 188L858 150L860 150L860 113L825 113L825 75L856 75L856 38L837 38L837 0L900 0L900 38L900 38L900 75L900 75L900 113L900 113L900 150L900 150L900 188L900 188L900 225L900 225L900 263L900 263L900 300L900 300L900 338L900 338L900 375L900 375L900 413L900 413L900 450L900 450L900 488L900 488L900 525L900 525L900 563L900 563L900 600L900 600Z" fill="#640273"></path><path d="M860 600L859 600L859 563L861 563L861 525L863 525L863 488L898 488L898 450L855 450L855 413L841 413L841 375L883 375L883 338L850 338L850 300L882 300L882 263L857 263L857 225L858 225L858 188L879 188L879 150L865 150L865 113L881 113L881 75L883 75L883 38L883 38L883 0L900 0L900 38L900 38L900 75L900 75L900 113L900 113L900 150L900 150L900 188L900 188L900 225L900 225L900 263L900 263L900 300L900 300L900 338L900 338L900 375L900 375L900 413L900 413L900 450L900 450L900 488L900 488L900 525L900 525L900 563L900 563L900 600L900 600Z" fill="#4e005f"></path></svg>