<svg id="visual" viewBox="0 0 900 600" width="900" height="600" xmlns="http://www.w3.org/2000/svg" xmlns:xlink="http://www.w3.org/1999/xlink" version="1.1"><rect x="0" y="0" width="900" height="600" fill="#18171a"></rect><path d="M749 600L652 600L652 574L801 574L801 548L724 548L724 522L783 522L783 496L776 496L776 470L794 470L794 443L766 443L766 417L768 417L768 391L653 391L653 365L668 365L668 339L641 339L641 313L755 313L755 287L779 287L779 261L706 261L706 235L677 235L677 209L715 209L715 183L781 183L781 157L715 157L715 130L793 130L793 104L801 104L801 78L642 78L642 52L787 52L787 26L789 26L789 0L900 0L900 26L900 26L900 52L900 52L900 78L900 78L900 104L900 104L900 130L900 130L900 157L900 157L900 183L900 183L900 209L900 209L900 235L900 235L900 261L900 261L900 287L900 287L900 313L900 313L900 339L900 339L900 365L900 365L900 391L900 391L900 417L900 417L900 443L900 443L900 470L900 470L900 496L900 496L900 522L900 522L900 548L900 548L900 574L900 574L900 600L900 600Z" fill="#a600ab"></path><path d="M703 600L795 600L795 574L693 574L693 548L764 548L764 522L779 522L779 496L796 496L796 470L782 470L782 443L759 443L759 417L689 417L689 391L803 391L803 365L778 365L778 339L701 339L701 313L793 313L793 287L803 287L803 261L779 261L779 235L808 235L808 209L784 209L784 183L717 183L717 157L686 157L686 130L744 130L744 104L796 104L796 78L804 78L804 52L706 52L706 26L710 26L710 0L900 0L900 26L900 26L900 52L900 52L900 78L900 78L900 104L900 104L900 130L900 130L900 157L900 157L900 183L900 183L900 209L900 209L900 235L900 235L900 261L900 261L900 287L900 287L900 313L900 313L900 339L900 339L900 365L900 365L900 391L900 391L900 417L900 417L900 443L900 443L900 470L900 470L900 496L900 496L900 522L900 522L900 548L900 548L900 574L900 574L900 600L900 600Z" fill="#870595"></path><path d="M751 600L810 600L810 574L798 574L798 548L775 548L775 522L834 522L834 496L755 496L755 470L774 470L774 443L813 443L813 417L810 417L810 391L756 391L756 365L834 365L834 339L736 339L736 313L785 313L785 287L806 287L806 261L737 261L737 235L788 235L788 209L790 209L790 183L755 183L755 157L757 157L757 130L750 130L750 104L749 104L749 78L831 78L831 52L804 52L804 26L776 26L776 0L900 0L900 26L900 26L900 52L900 52L900 78L900 78L900 104L900 104L900 130L900 130L900 157L900 157L900 183L900 183L900 209L900 209L900 235L900 235L900 261L900 261L900 287L900 287L900 313L900 313L900 339L900 339L900 365L900 365L900 391L900 391L900 417L900 417L900 443L900 443L900 470L900 470L900 496L900 496L900 522L900 522L900 548L900 548L900 574L900 574L900 600L900 600Z" fill="#6a067f"></path><path d="M868 600L804 600L804 574L776 574L776 548L787 548L787 522L847 522L847 496L870 496L870 470L841 470L841 443L812 443L812 417L782 417L782 391L835 391L835 365L803 365L803 339L860 339L860 313L818 313L818 287L773 287L773 261L845 261L845 235L802 235L802 209L805 209L805 183L821 183L821 157L858 157L858 130L819 130L819 104L864 104L864 78L791 78L791 52L810 52L810 26L854 26L854 0L900 0L900 26L900 26L900 52L900 52L900 78L900 78L900 104L900 104L900 130L900 130L900 157L900 157L900 183L900 183L900 209L900 209L900 235L900 235L900 261L900 261L900 287L900 287L900 313L900 313L900 339L900 339L900 365L900 365L900 391L900 391L900 417L900 417L900 443L900 443L900 470L900 470L900 496L900 496L900 522L900 522L900 548L900 548L900 574L900 574L900 600L900 600Z" fill="#4f0468"></path><path d="M819 600L834 600L834 574L832 574L832 548L844 548L844 522L853 522L853 496L893 496L893 470L861 470L861 443L845 443L845 417L874 417L874 391L895 391L895 365L871 365L871 339L851 339L851 313L862 313L862 287L859 287L859 261L879 261L879 235L846 235L846 209L824 209L824 183L864 183L864 157L873 157L873 130L832 130L832 104L855 104L855 78L833 78L833 52L864 52L864 26L880 26L880 0L900 0L900 26L900 26L900 52L900 52L900 78L900 78L900 104L900 104L900 130L900 130L900 157L900 157L900 183L900 183L900 209L900 209L900 235L900 235L900 261L900 261L900 287L900 287L900 313L900 313L900 339L900 339L900 365L900 365L900 391L900 391L900 417L900 417L900 443L900 443L900 470L900 470L900 496L900 496L900 522L900 522L900 548L900 548L900 574L900 574L900 600L900 600Z" fill="#370251"></path></svg>