<svg id="visual" viewBox="0 0 960 300" width="960" height="300" xmlns="http://www.w3.org/2000/svg" xmlns:xlink="http://www.w3.org/1999/xlink" version="1.1"><rect x="0" y="0" width="960" height="300" fill="#1a1515"></rect><path d="M0 143L137 92L274 115L411 54L549 80L686 135L823 51L960 80L960 301L823 301L686 301L549 301L411 301L274 301L137 301L0 301Z" fill="#f50abc"></path><path d="M0 137L137 92L274 139L411 126L549 118L686 131L823 140L960 85L960 301L823 301L686 301L549 301L411 301L274 301L137 301L0 301Z" fill="#d500b9"></path><path d="M0 169L137 146L274 158L411 191L549 196L686 158L823 193L960 159L960 301L823 301L686 301L549 301L411 301L274 301L137 301L0 301Z" fill="#b300b5"></path><path d="M0 203L137 175L274 176L411 187L549 181L686 173L823 217L960 210L960 301L823 301L686 301L549 301L411 301L274 301L137 301L0 301Z" fill="#9000af"></path><path d="M0 233L137 208L274 241L411 248L549 244L686 211L823 202L960 243L960 301L823 301L686 301L549 301L411 301L274 301L137 301L0 301Z" fill="#6b01a8"></path><path d="M0 236L137 252L274 235L411 274L549 248L686 276L823 265L960 250L960 301L823 301L686 301L549 301L411 301L274 301L137 301L0 301Z" fill="#3e079f"></path></svg>